<?xml version="1.0" standalone="no"?>
<!DOCTYPE svg PUBLIC "-//W3C//DTD SVG 20010904//EN"
 "http://www.w3.org/TR/2001/REC-SVG-20010904/DTD/svg10.dtd">
<svg width="217" height="46" viewBox="0 0 217 46" fill="none" xmlns="http://www.w3.org/2000/svg">

<g transform="translate(0.000000,677.000000) scale(0.100000,-0.100000)"
fill="#000000" stroke="none">
<path d="M0 3385 l0 -3385 7855 0 7855 0 0 3385 0 3385 -7855 0 -7855 0 0
-3385z m6135 801 c84 -22 211 -88 278 -144 103 -85 182 -214 223 -362 25 -91
25 -319 0 -410 -33 -123 -83 -207 -176 -301 -68 -69 -102 -94 -170 -127 -129
-63 -192 -77 -350 -76 -157 1 -247 23 -365 88 -105 58 -220 179 -272 286 -59
119 -77 200 -77 345 0 211 66 376 205 515 110 110 230 173 380 199 75 14 252
6 324 -13z m2897 10 c94 -20 202 -74 280 -140 98 -82 99 -84 30 -143 -31 -27
-63 -53 -70 -57 -8 -5 -33 11 -69 44 -98 90 -190 123 -347 123 -161 1 -268
-39 -373 -137 -200 -186 -215 -522 -33 -750 39 -48 116 -109 183 -143 193 -99
453 -56 614 100 l43 41 27 -26 c16 -15 45 -42 65 -61 l37 -35 -64 -60 c-117
-110 -245 -166 -414 -182 -238 -22 -428 41 -587 197 -83 82 -136 159 -170 250
-101 266 -55 555 122 762 82 95 240 188 368 216 81 18 275 18 358 1z m2235
-348 c-4 -199 -7 -519 -7 -713 l0 -351 -92 1 -93 0 -3 713 -2 712 102 0 101 0
-6 -362z m555 -258 c2 -341 3 -662 3 -712 l0 -93 -95 0 -95 0 -3 713 -2 712
95 0 95 0 2 -620z m1021 611 c14 -6 36 -25 50 -43 24 -31 26 -43 33 -199 l7
-166 -24 -6 c-13 -4 -86 -7 -162 -7 -150 0 -184 8 -227 54 -24 27 -25 32 -28
202 l-3 174 165 0 c90 0 176 -4 189 -9z m837 -165 c0 -163 -1 -175 -22 -201
-12 -15 -36 -34 -54 -41 -36 -15 -179 -19 -296 -7 l-68 6 0 146 c0 168 9 210
51 245 30 26 32 26 210 26 l179 0 0 -174z m-11572 155 c117 -8 171 -17 230
-36 223 -75 369 -227 434 -450 19 -67 23 -103 23 -225 0 -133 -2 -152 -29
-234 -56 -170 -176 -311 -329 -385 -146 -72 -160 -74 -549 -79 l-348 -3 0 708
0 708 208 3 c114 2 276 -2 360 -7z m1527 -368 c229 -56 386 -268 388 -523 1
-164 -50 -287 -163 -394 -117 -110 -235 -152 -410 -144 -159 8 -256 51 -363
162 -125 131 -170 368 -106 558 91 275 359 414 654 341z m1249 -3 c76 -26 130
-58 186 -110 l45 -42 -64 -59 c-35 -32 -68 -59 -74 -59 -5 0 -28 16 -50 36
-65 59 -119 79 -217 79 -71 0 -94 -4 -141 -26 -99 -47 -154 -118 -185 -242
-45 -172 27 -348 171 -425 45 -24 61 -27 150 -27 111 0 148 13 233 82 49 40
47 40 132 -35 l45 -40 -49 -51 c-115 -117 -305 -168 -488 -130 -205 43 -358
208 -395 428 -14 85 -14 103 -1 186 25 154 90 267 203 352 33 25 80 54 105 65
115 50 281 58 394 18z m2611 20 c82 -12 177 -55 222 -102 52 -54 101 -145 117
-218 13 -55 16 -137 16 -404 l0 -336 -100 0 -100 0 0 339 c0 366 -3 388 -56
458 -13 18 -46 45 -72 60 -40 24 -58 28 -122 28 -122 0 -213 -56 -272 -168
-22 -41 -23 -51 -26 -379 l-3 -338 -98 0 -98 0 -7 31 c-3 17 -6 251 -6 520 l0
489 95 0 95 0 0 -32 c0 -18 3 -49 6 -69 l6 -36 39 42 c49 53 122 92 202 110
77 17 77 17 162 5z m2657 -20 c52 -16 70 -27 91 -57 15 -21 23 -39 17 -41 -6
-2 -8 -7 -5 -12 8 -12 -15 -58 -32 -64 -8 -3 -24 0 -36 6 -13 8 -62 13 -122
13 -122 0 -161 -16 -202 -82 -26 -41 -31 -44 -61 -39 -46 7 -62 23 -62 62 0
60 56 139 129 182 91 53 181 64 283 32z m334 -18 c7 -4 13 -57 17 -132 9 -210
51 -324 262 -723 51 -96 56 -111 43 -124 -17 -16 -77 -32 -125 -33 -32 0 -35
4 -93 118 -33 64 -79 149 -101 187 -73 124 -117 249 -134 387 -5 37 -10 47
-28 52 -16 4 -26 17 -33 43 -16 62 -4 91 49 107 14 4 17 17 17 66 l0 60 58 0
c31 0 62 -4 68 -8z m2658 -95 c14 -17 17 -32 13 -67 l-5 -45 50 0 c43 0 54 -4
75 -29 46 -54 0 -126 -81 -126 l-42 0 0 -50 c1 -54 -12 -75 -56 -85 -43 -11
-78 31 -78 94 l0 49 -40 -5 c-34 -5 -43 -2 -71 26 -26 27 -30 37 -25 64 9 45
27 59 84 65 l49 4 -1 38 c-1 43 19 87 43 94 28 7 65 -4 85 -27z m-3342 -216
l42 -39 -3 -121 c-5 -238 63 -343 247 -382 96 -20 168 1 254 72 42 35 50 38
68 27 11 -7 20 -18 20 -25 0 -7 4 -13 8 -13 10 0 32 -45 32 -66 0 -28 -82
-104 -148 -136 -60 -30 -77 -33 -172 -36 -122 -5 -199 8 -267 45 -109 57 -172
132 -214 253 -40 117 -27 328 27 432 21 40 55 37 106 -11z m3124 -276 c3 -14
5 -92 3 -173 -4 -160 -11 -183 -66 -219 -23 -15 -55 -19 -196 -21 l-168 -4 3
185 c3 168 5 187 23 207 37 42 71 49 237 50 l158 0 6 -25z m695 2 c61 -32 68
-58 68 -249 l1 -158 -181 0 -182 0 -32 34 c-41 44 -45 66 -45 247 l0 149 163
0 c152 0 167 -2 208 -23z m79 -942 l0 -45 -6087 0 -6088 0 -1 45 -1 45 6088 0
6089 0 0 -45z"/>
<path d="M5840 4019 c-138 -22 -282 -131 -351 -264 -173 -332 1 -732 349 -804
284 -59 547 112 607 394 56 265 -57 522 -276 629 -105 51 -206 65 -329 45z"/>
<path d="M1744 4011 c-2 -2 -4 -243 -4 -534 l0 -530 218 6 c174 4 230 9 284
25 225 65 357 253 358 509 0 106 -14 171 -56 260 -56 117 -156 201 -289 243
-37 12 -501 31 -511 21z"/>
<path d="M3399 3657 c-153 -43 -239 -159 -247 -333 -12 -249 127 -395 362
-382 164 9 270 107 306 282 24 117 -11 251 -86 335 -79 87 -223 130 -335 98z"/>
<path d="M13055 3558 c-3 -7 -6 -31 -8 -53 l-2 -40 45 0 45 0 -4 45 c-1 25 -5
48 -8 53 -7 12 -63 8 -68 -5z"/>
</g>
</svg>
