<?xml version="1.0" standalone="no"?>
<!DOCTYPE svg PUBLIC "-//W3C//DTD SVG 20010904//EN"
 "http://www.w3.org/TR/2001/REC-SVG-20010904/DTD/svg10.dtd">
<svg version="1.0" xmlns="http://www.w3.org/2000/svg"
 width="200pt" height="70pt" viewBox="0 0 761.000000 328.000000"
 preserveAspectRatio="xMidYMid meet">

<g transform="translate(0.000000,328.000000) scale(0.100000,-0.100000)"
fill="#5F6FFF" stroke="none">
<path d="M0 1640 l0 -1640 3805 0 3805 0 0 1640 0 1640 -3805 0 -3805 0 0
-1640z m2989 384 c26 -7 67 -27 91 -43 25 -16 48 -27 54 -24 5 3 6 1 2 -5 -3
-5 4 -23 17 -39 115 -138 98 -368 -36 -488 -93 -85 -246 -111 -369 -65 -51 19
-169 110 -175 136 -2 5 -12 36 -24 69 -32 91 -25 199 19 287 78 159 242 226
421 172z m-1854 -9 c122 -42 191 -120 215 -243 30 -150 -22 -294 -133 -367
-72 -48 -157 -65 -328 -65 -116 0 -138 2 -143 16 -8 20 -8 669 0 677 3 3 81 4
173 2 121 -3 181 -8 216 -20z m3310 -10 c40 -19 80 -46 89 -60 15 -23 15 -26
-6 -50 -29 -33 -42 -32 -90 9 -46 39 -106 52 -190 41 -72 -10 -97 -21 -136
-58 -58 -55 -76 -101 -76 -192 1 -131 47 -199 177 -258 21 -9 52 -17 71 -17
50 0 129 27 174 60 23 16 43 30 45 30 2 0 17 -11 33 -25 l29 -26 -35 -29
c-147 -125 -360 -116 -490 19 -56 58 -78 103 -93 188 -19 118 23 247 105 318
72 63 130 84 232 84 82 1 95 -2 161 -34z m1013 -312 l2 -343 -39 0 c-21 0 -43
6 -49 13 -12 14 -17 658 -5 670 4 5 25 7 48 5 l40 -3 3 -342z m266 325 c3 -13
6 -168 6 -345 l0 -323 -45 0 -45 0 -1 275 c-1 151 -1 298 -1 325 0 94 -2 90
41 90 32 0 40 -4 45 -22z m517 5 c21 -24 26 -178 6 -186 -20 -7 -162 4 -179
14 -9 6 -14 37 -16 99 l-4 90 90 0 c71 0 92 -3 103 -17z m389 -65 c0 -46 -4
-88 -8 -95 -14 -22 -57 -30 -136 -25 l-79 5 6 84 c3 47 11 91 18 99 8 10 37
14 105 14 l94 0 0 -82z m-4822 -120 c198 -94 188 -397 -15 -484 -49 -20 -166
-21 -213 -1 -49 21 -126 106 -139 153 -14 52 -14 137 1 187 19 62 92 135 158
157 67 23 145 18 208 -12z m583 7 c41 -21 79 -54 79 -70 0 -6 -14 -21 -31 -34
l-30 -23 -38 26 c-29 20 -49 26 -92 26 -49 0 -60 -4 -97 -35 -76 -66 -83 -186
-16 -261 30 -33 59 -44 116 -44 42 0 62 6 88 25 40 30 48 30 78 6 29 -25 28
-45 -5 -71 -47 -36 -95 -51 -166 -52 -163 0 -269 121 -254 290 14 148 135 249
283 238 29 -2 67 -12 85 -21z m1259 14 c71 -15 123 -66 144 -140 13 -43 16
-91 14 -215 l-3 -159 -44 -3 c-28 -2 -47 1 -52 10 -5 7 -9 89 -9 182 l0 168
-34 34 c-27 27 -42 34 -74 34 -44 0 -86 -13 -106 -33 -35 -35 -41 -64 -46
-227 l-5 -165 -45 0 -45 0 -3 253 -2 252 45 0 c41 0 45 -2 45 -25 0 -30 11
-32 35 -5 16 18 89 47 122 49 7 1 35 -4 63 -10z m1285 -11 c26 -12 42 -48 30
-67 -3 -6 -39 -11 -81 -11 -67 0 -77 -3 -98 -25 -45 -49 -82 -21 -53 40 29 61
134 94 202 63z m147 -70 c3 -37 12 -85 18 -105 17 -52 98 -225 115 -243 7 -8
17 -27 20 -42 7 -27 6 -28 -34 -28 -36 0 -44 4 -59 31 -9 17 -36 63 -59 102
-26 45 -46 97 -54 137 -7 36 -22 78 -34 93 l-20 29 23 18 c14 12 22 29 22 50
0 28 3 31 28 28 26 -3 27 -6 34 -70z m1286 -5 c3 -26 8 -33 25 -33 58 -1 65
-58 10 -75 -25 -7 -33 -15 -33 -31 0 -14 -8 -25 -20 -29 -28 -9 -40 2 -40 35
0 24 -5 29 -26 32 -56 6 -59 68 -4 68 27 0 30 3 25 20 -8 27 12 52 39 48 16
-2 22 -11 24 -35z m-1626 -80 c9 -11 18 -49 22 -92 13 -129 51 -171 154 -171
39 0 57 6 80 25 17 14 33 25 36 25 3 0 13 -11 22 -25 15 -23 15 -27 1 -49 -21
-32 -98 -66 -150 -66 -59 0 -103 16 -159 58 -39 29 -49 44 -62 91 -20 71 -20
104 -1 169 17 55 32 64 57 35z m1513 -221 c0 -72 -3 -95 -15 -102 -8 -5 -52
-10 -97 -10 l-83 0 -1 53 c0 28 -2 61 -5 72 -13 63 21 85 126 82 l75 -2 0 -93z
m359 79 c12 -11 16 -33 16 -103 l0 -90 -90 4 c-55 2 -94 8 -102 16 -8 8 -14
47 -17 104 l-3 91 90 -5 c54 -2 97 -9 106 -17z m-38 -427 c50 -5 60 -10 60
-25 0 -19 -70 -19 -2948 -19 l-2948 0 0 25 0 25 2889 0 c1588 0 2915 -3 2947
-6z"/>
<path d="M2818 1941 c-149 -31 -234 -224 -162 -369 26 -52 84 -107 137 -130
35 -15 136 -16 174 -1 47 18 110 77 133 125 36 73 33 188 -6 251 -64 103 -163
147 -276 124z"/>
<path d="M845 1930 c-10 -17 -4 -474 7 -487 13 -17 152 -17 216 -1 54 13 94
36 86 49 -3 5 1 6 9 3 17 -6 60 43 50 59 -3 5 -1 7 5 3 17 -10 34 59 34 140 0
121 -56 203 -158 232 -50 15 -240 16 -249 2z"/>
<path d="M1599 1745 c-46 -30 -69 -79 -69 -144 0 -61 18 -107 54 -140 20 -19
40 -26 88 -29 74 -6 118 14 151 67 29 48 30 142 3 193 -41 76 -153 102 -227
53z"/>
<path d="M6317 1708 c-7 -25 7 -38 33 -31 12 3 16 12 12 29 -6 31 -38 32 -45
2z"/>
</g>
</svg>
